<svg xmlns="http://www.w3.org/2000/svg"><symbol id="mecha-stilts" viewBox="0 0 166.3 192"><path d="M59.4 123.6H75v9.83H59.4zm31.9 0h15.6v9.83H91.3zm-13.2 0h10v9.83h-10zm5-65c-18.2 0-33.5 11-34.3 31.2h68.7c-.8-20.2-16.1-31.2-34.4-31.2zm-36.8 65h10v9.83h-10zm-9.3-3.1h92.3V92.9H37zm45.4-10.6h38a1.6 1.6 0 1 1 0 3.1h-38a1.6 1.6 0 1 1 0-3.1zm27.6 13.7h10v9.83h-10z"/><path d="M83.1 1L.9 48.5v95L83.1 191l82.3-47.5v-95zm49.3 121.1a1.4 1.4 0 0 1-1.5 1.5h-7.8v9.8h7.8a1.6 1.6 0 0 1 0 3.2H35.4a1.6 1.6 0 0 1 0-3.2h7.8v-9.8h-7.8a1.5 1.5 0 0 1-1.6-1.5V91.3a1.5 1.5 0 0 1 1.6-1.5h10.3c.8-22.2 17.3-34.4 37.4-34.4s36.7 12.2 37.5 34.4h10.3a1.4 1.4 0 0 1 1.5 1.5z"/></symbol><symbol id="space-bubbles" viewBox="0 0 166.3 192"><path d="M60.4 116H50.1l-13.7 16.3 2.2 3.1 26.3-13.9-4.5-5.5zm6.7 8l-14.8 7.8h21.2l-6.4-7.8zm-25.7-19.2h85.3v8.11H41.4zm42.7-48.7a33.9 33.9 0 0 0-33.8 33.7c0 4.1.3 8.3 1.8 11.9h63.8a36.2 36.2 0 0 0 1.9-11.9 33.8 33.8 0 0 0-33.7-33.7z"/><path d="M83.1 1L.9 48.5v95L83.1 191l82.3-47.5v-95zm50 132.2l-3.6 5.2a1.6 1.6 0 0 1-2 .4l-7.5-3.9H46.2l-7.5 3.9a1.7 1.7 0 0 1-2-.4l-3.6-5.2a1.7 1.7 0 0 1 .2-1.9L46.2 116h-6.4a1.5 1.5 0 0 1-1.6-1.5v-11.2a1.5 1.5 0 0 1 1.6-1.6h9.1a43.4 43.4 0 0 1-1.8-11.9 36.9 36.9 0 1 1 72.1 11.9h9.1a1.4 1.4 0 0 1 1.5 1.6v11.2a1.4 1.4 0 0 1-1.5 1.5h-8l12.8 15.3a1.7 1.7 0 0 1 0 1.9z"/><path d="M116.3 116H106l-4.7 5.5 26.5 13.9 2.2-3-13.7-16.4zm-17.1 8l-6.3 7.8h21.2L99.2 124zm-34.7-8l13.1 15.8h11.2l13.1-15.8H64.5z"/></symbol><symbol id="super-domes" viewBox="0 0 166.3 192"><path d="M39.6 112.2h42v17.32h-42zm42-14.8V65.9L59.1 97.4h22.5zm3.1-34.8v34.8h43.1a46.5 46.5 0 0 0-43.1-34.8zm-4.7.1C60 64 43.4 78.5 38.5 97.4h16.7zm-49.3 37.8h104.8v8.58H30.7z"/><path d="M83.1 1L.9 48.5v95L83.1 191l82.3-47.5v-95zm67.3 111.2h-20.6v18.9a1.4 1.4 0 0 1-1.6 1.5H38a1.4 1.4 0 0 1-1.5-1.5v-18.9H15.9a1.6 1.6 0 1 1 0-3.1h11.7V98.9a1.4 1.4 0 0 1 1.6-1.5h6A49.5 49.5 0 0 1 83 59.5q.1-.3.6 0A49.2 49.2 0 0 1 131 97.4h6.1a1.4 1.4 0 0 1 1.6 1.5v10.2h11.7a1.6 1.6 0 0 1 1.5 1.5 1.6 1.6 0 0 1-1.5 1.6z"/><path d="M94.8 112.2h31.8v17.32H94.8zm-10.1 0h7v17.32h-7z"/></symbol></svg>