<svg xmlns="http://www.w3.org/2000/svg"><symbol id="mecha-stilts" viewBox="0 0 191 220.5"><path d="M95.5.7l94.9 54.8v109.6l-94.9 54.8L.6 165.1V55.5L95.5.7z"/><path fill="#fff" d="M40.4 150.8a1.8 1.8 0 1 1 0-3.6h9v-11.4h-9a1.7 1.7 0 0 1-1.8-1.8V98.6a1.7 1.7 0 0 1 1.8-1.8h11.9c.9-25.6 20-39.6 43.2-39.6s42.3 14 43.2 39.6h11.9a1.7 1.7 0 0 1 1.8 1.8V134a1.7 1.7 0 0 1-1.8 1.8h-9v11.4h9a1.8 1.8 0 1 1 0 3.6zm1.8-50.4v31.8h106.6v-31.8zM53 135.8v11.4h11.5v-11.4zm2.9-39h79.2c-.9-23.2-18.5-36-39.6-36s-38.7 12.8-39.6 36zm12.2 39v11.4h18v-11.4zm21.6 0v11.4h11.6v-11.4zm48.8-12.2H94.6a1.8 1.8 0 1 1 0-3.6h43.9a1.8 1.8 0 1 1 0 3.6zm-33.6 12.2v11.4h18v-11.4zm21.6 0v11.4H138v-11.4z"/></symbol><symbol id="space-bubbles" viewBox="0 0 191 220.5"><path d="M95.5.7l94.9 54.8v109.6l-94.9 54.8L.6 165.1V55.5L95.5.7z"/><path fill="#fff" d="M41.9 154.7l-4.2-5.9a2.2 2.2 0 0 1 .2-2.2L52.8 129h-7.3a1.7 1.7 0 0 1-1.8-1.8v-13a1.7 1.7 0 0 1 1.8-1.8h10.4a48.1 48.1 0 0 1-2-13.6 42.6 42.6 0 0 1 85.2 0 44.8 44.8 0 0 1-2 13.6h10.4a1.7 1.7 0 0 1 1.8 1.8v13a1.7 1.7 0 0 1-1.8 1.8h-9.2l14.8 17.6a2 2 0 0 1 0 2.2l-4.1 5.9a2.2 2.2 0 0 1-2.4.6l-8.6-4.5H52.8l-8.6 4.5a2 2 0 0 1-2.3-.6zM69.2 129H57.3l-15.8 18.7 2.5 3.6 30.4-16zm-21.9-13v9.4h98.4V116zm12.4-3.6h73.6a44.5 44.5 0 0 0 2.2-13.6 39 39 0 0 0-78 0c0 4.6.4 9.5 2.2 13.6zM77 138.2l-17.1 9h24.4zm-3.1-9.2L89 147.2h13l15.1-18.2zm40.1 9.2l-7.3 9h24.4zm19.7-9.2h-11.9l-5.4 6.3 30.6 16 2.5-3.4z"/></symbol><symbol id="super-domes" viewBox="0 0 191 220.5"><path d="M95.5.7l94.9 54.8v109.6l-94.9 54.8L.6 165.1V55.5L95.5.7z"/><path fill="#fff" d="M43.5 150.8a1.7 1.7 0 0 1-1.8-1.8v-21.8H17.9a1.8 1.8 0 0 1 0-3.6h13.5v-11.7a1.7 1.7 0 0 1 1.8-1.8h7a57.1 57.1 0 0 1 55.1-43.7c.2-.2.4-.2.7 0 26.7.1 48.8 18.9 54.8 43.7h7a1.7 1.7 0 0 1 1.8 1.8v11.7h13.5a1.8 1.8 0 1 1 0 3.6h-23.8V149a1.7 1.7 0 0 1-1.8 1.8zM35 113.7v9.9h121v-9.9zm56.9-43.6c-23 1.5-42.3 18.2-47.9 40h19.3zm-46.6 57.1v20h48.4v-20zm48.4-53.5l-25.9 36.4h25.9zm3.6-3.7v40.1H147A53.6 53.6 0 0 0 97.3 70zm0 57.2v20h8.1v-20zm11.7 0v20h36.7v-20z"/></symbol></svg>